<svg xmlns="http://www.w3.org/2000/svg" viewBox="0 0 80 80" fill="none">
  <!-- Water heater / tank icon -->
  <rect x="20" y="8" width="40" height="58" rx="8" stroke="currentColor" stroke-width="3"/>
  <path d="M40 24c-2 2.5-4 4.5-4 7a4 4 0 008 0c0-2.5-2-4.5-4-7z" fill="currentColor"/>
  <path d="M33 26c-1 1.5-2 2.5-2 4a2 2 0 004 0c0-1.5-1-2.5-2-4z" fill="currentColor" opacity="0.5"/>
  <path d="M47 26c-1 1.5-2 2.5-2 4a2 2 0 004 0c0-1.5-1-2.5-2-4z" fill="currentColor" opacity="0.5"/>
  <line x1="24" y1="44" x2="56" y2="44" stroke="currentColor" stroke-width="2"/>
  <circle cx="32" cy="52" r="3" stroke="currentColor" stroke-width="2"/>
  <circle cx="48" cy="52" r="3" stroke="currentColor" stroke-width="2"/>
  <path d="M32 66v6" stroke="currentColor" stroke-width="2.5" stroke-linecap="round"/>
  <path d="M48 66v6" stroke="currentColor" stroke-width="2.5" stroke-linecap="round"/>
</svg>
